<svg id="Layer_1" data-name="Layer 1" xmlns="http://www.w3.org/2000/svg" xmlns:xlink="http://www.w3.org/1999/xlink" viewBox="0 0 551 511"><defs><style>.cls-1{fill:#fc7eab;}.cls-2{fill:#fff;}</style></defs><path class="cls-1" d="M293.5,587.5c-72.7,0-141-26.25-192.43-73.9S21.5,402.76,21.5,335.5,49.76,205,101.07,157.4,220.8,83.5,293.5,83.5s141,26.25,192.43,73.9S565.5,268.24,565.5,335.5,537.24,466,485.93,513.6,366.2,587.5,293.5,587.5Z" transform="translate(-18 -80)"/><path class="cls-2" d="M293.5,87a285.29,285.29,0,0,1,104.68,19.6A269.57,269.57,0,0,1,483.55,160,247.47,247.47,0,0,1,541,239a232.25,232.25,0,0,1,0,193.1,247.47,247.47,0,0,1-57.43,79,269.57,269.57,0,0,1-85.37,53.37,289.34,289.34,0,0,1-209.36,0A269.57,269.57,0,0,1,103.45,511a247.47,247.47,0,0,1-57.43-79A232.25,232.25,0,0,1,46,239a247.47,247.47,0,0,1,57.43-79,269.57,269.57,0,0,1,85.37-53.37A285.29,285.29,0,0,1,293.5,87m0-7C141.35,80,18,194.39,18,335.5S141.35,591,293.5,591,569,476.61,569,335.5,445.65,80,293.5,80Z" transform="translate(-18 -80)"/><image width="820" height="1314" transform="translate(168 83) scale(0.27 0.25)" xlink:href="../../../../Sjernetegn/virgo/jomfrue.png"/><path class="cls-2" d="M166.64,516.18c19.8,7.62,40.39,13.32,61.4,15.29l3.93.38,3.94.26c1.31.1,2.63.16,3.94.19l3.94.13q7.89.09,15.74-.46c5.23-.39,10.44-1,15.6-1.91s10.27-2,15.38-3.31c10.2-2.64,20.61-5.54,31.22-7.51a208.44,208.44,0,0,1,32.1-3.39c5.38-.13,10.76-.08,16.13.11s10.73.6,16.06,1.23a203.55,203.55,0,0,1,31.54,6l-.12.68c-10.63-.87-21.19-1.51-31.74-1.73s-21.07,0-31.54.74-20.92,1.78-31.3,3.23c-5.19.73-10.35,1.65-15.51,2.71s-10.32,2.29-15.56,3.41-10.54,2.15-15.89,2.87-10.72,1.22-16.1,1.44-10.77.18-16.14-.06l-4-.26c-1.34-.08-2.68-.18-4-.33l-4-.39-4-.53c-2.66-.32-5.3-.83-7.94-1.27s-5.25-1-7.87-1.57-5.21-1.23-7.8-1.9-5.16-1.38-7.71-2.18a247,247,0,0,1-29.95-11.2Z" transform="translate(-18 -80)"/><path class="cls-2" d="M160.75,122.32c19.8,7.62,40.4,13.33,61.41,15.3l3.93.38,3.94.26c1.31.1,2.62.16,3.94.19l3.94.12c5.25.07,10.51-.08,15.74-.46s10.44-1,15.6-1.9,10.26-2,15.38-3.31c10.2-2.65,20.61-5.54,31.21-7.51a207.47,207.47,0,0,1,32.1-3.39c5.38-.14,10.76-.08,16.14.1s10.73.6,16.06,1.24a205.17,205.17,0,0,1,31.54,6l-.13.69c-10.62-.87-21.19-1.51-31.74-1.74s-21.06,0-31.54.74-20.91,1.79-31.29,3.23q-7.78,1.11-15.52,2.72c-5.15,1.07-10.31,2.28-15.55,3.41s-10.55,2.15-15.9,2.87-10.72,1.21-16.1,1.44-10.76.18-16.13-.06l-4-.26c-1.34-.08-2.67-.18-4-.33l-4-.4-4-.52c-2.66-.32-5.29-.83-7.94-1.27s-5.25-1-7.87-1.58-5.21-1.22-7.79-1.9-5.17-1.38-7.72-2.17A249.21,249.21,0,0,1,160.48,123Z" transform="translate(-18 -80)"/><path class="cls-2" d="M205.59,112.27c5.92.37,23.45,5.67,19.16,14-2,2.72-5.28,2.87-8,3.71a51.51,51.51,0,0,0-14.37,5.76c-3.91,2.18-6.68,4.93-5.12,9.62,2.06,6.32,6.7,11.34,10.43,16.9l-.34.38a40.67,40.67,0,0,1-8.7-6.33,24,24,0,0,1-6.48-9.33c-1.59-4-.29-9.47,3.39-12.08,6.29-4.93,13.84-3.82,20.71-6.46,2-.81,4.65-1.88,5.36-3.83,0-.37-.06-.5-.29-.86a14.46,14.46,0,0,0-3-2.71c-4.15-3-8.67-5.24-13-8.36l.18-.46Z" transform="translate(-18 -80)"/><path class="cls-2" d="M240.77,117.73c5.93.37,23.45,5.67,19.16,14-2,2.72-5.27,2.87-8,3.71a51.45,51.45,0,0,0-14.36,5.76c-3.91,2.18-6.69,4.93-5.12,9.62,2,6.32,6.69,11.34,10.42,16.9l-.33.38a40.49,40.49,0,0,1-8.71-6.33,23.93,23.93,0,0,1-6.47-9.33c-1.6-4-.29-9.47,3.38-12.08,6.3-4.93,13.84-3.81,20.71-6.46,2-.81,4.65-1.88,5.37-3.82a1.16,1.16,0,0,0-.3-.87,13.94,13.94,0,0,0-3-2.71c-4.15-3-8.67-5.24-12.94-8.36l.17-.46Z" transform="translate(-18 -80)"/><path class="cls-2" d="M279.63,112.58c5.91.83,19.26,6.62,15.32,14.36-1.63,2.45-4.58,2.86-6.94,3.67a33.26,33.26,0,0,0-8.36,3.62c-2.49,1.61-4.65,3.47-5.57,5.47-1.84,4.66,1.37,10.4,3.41,14.78,1.32,2.67,2.85,5.3,4.21,8.16l-.37.33c-9.17-5.8-19.92-21.31-7.41-29.39,4.23-2.41,9.28-2.55,13.53-4.48,1.74-.82,3.87-1.94,4.32-3.72a2,2,0,0,0-.2-1c-.94-1.88-3.32-3.94-5.15-5.44-2.26-1.87-4.7-3.7-7-5.9l.23-.45Z" transform="translate(-18 -80)"/><path class="cls-2" d="M320.77,106.73c5.93.37,23.45,5.67,19.16,14-2,2.72-5.27,2.87-8,3.71a51.45,51.45,0,0,0-14.36,5.76c-3.91,2.18-6.69,4.93-5.12,9.62,2.05,6.32,6.69,11.34,10.42,16.9l-.33.38a40.49,40.49,0,0,1-8.71-6.33,23.93,23.93,0,0,1-6.47-9.33c-1.6-4-.29-9.47,3.38-12.08,6.3-4.93,13.84-3.81,20.71-6.46,2-.81,4.65-1.88,5.37-3.82a1.16,1.16,0,0,0-.3-.87,13.94,13.94,0,0,0-3-2.71c-4.15-3-8.67-5.24-12.94-8.36l.17-.46Z" transform="translate(-18 -80)"/><path class="cls-2" d="M359.77,106.73c5.93.37,23.45,5.67,19.16,14-2,2.72-5.27,2.87-8,3.71a51.45,51.45,0,0,0-14.36,5.76c-3.91,2.18-6.69,4.93-5.12,9.62,2.05,6.32,6.69,11.34,10.42,16.9l-.33.38a40.49,40.49,0,0,1-8.71-6.33,23.93,23.93,0,0,1-6.47-9.33c-1.6-4-.29-9.47,3.38-12.08,6.3-4.93,13.84-3.81,20.71-6.46,2-.81,4.65-1.88,5.37-3.82a1.16,1.16,0,0,0-.3-.87,13.94,13.94,0,0,0-3-2.71c-4.15-3-8.67-5.24-12.94-8.36l.17-.46Z" transform="translate(-18 -80)"/><path class="cls-2" d="M408.77,109.73c5.93.37,23.45,5.67,19.16,14-2,2.72-5.27,2.87-8,3.71a51.45,51.45,0,0,0-14.36,5.76c-3.91,2.18-6.69,4.93-5.12,9.62,2.05,6.32,6.69,11.34,10.42,16.9l-.33.38a40.49,40.49,0,0,1-8.71-6.33,23.93,23.93,0,0,1-6.47-9.33c-1.6-4-.29-9.47,3.38-12.08,6.3-4.93,13.84-3.81,20.71-6.46,2-.81,4.65-1.88,5.37-3.82a1.16,1.16,0,0,0-.3-.87,13.94,13.94,0,0,0-3-2.71c-4.15-3-8.67-5.24-12.94-8.36l.17-.46Z" transform="translate(-18 -80)"/><path class="cls-2" d="M201,503c5.93.37,23.45,5.67,19.16,14-2,2.72-5.27,2.88-8,3.72a51.73,51.73,0,0,0-14.36,5.75c-3.91,2.19-6.69,4.94-5.13,9.63,2.06,6.31,6.7,11.33,10.43,16.9l-.33.37a40.11,40.11,0,0,1-8.71-6.32,24.17,24.17,0,0,1-6.48-9.34c-1.59-4-.29-9.47,3.39-12.07,6.29-4.94,13.84-3.82,20.71-6.46,2-.81,4.65-1.89,5.37-3.83a1.15,1.15,0,0,0-.3-.86,14.21,14.21,0,0,0-3-2.72c-4.15-3-8.67-5.23-12.95-8.35L201,503Z" transform="translate(-18 -80)"/><path class="cls-2" d="M239,506c5.93.37,23.45,5.67,19.16,14-2,2.72-5.27,2.88-8,3.72a51.73,51.73,0,0,0-14.36,5.75c-3.91,2.19-6.69,4.94-5.13,9.63,2.06,6.31,6.7,11.33,10.43,16.9l-.33.37a40.11,40.11,0,0,1-8.71-6.32,24.17,24.17,0,0,1-6.48-9.34c-1.59-4-.29-9.47,3.39-12.07,6.29-4.94,13.84-3.82,20.71-6.46,2-.81,4.65-1.89,5.37-3.83a1.15,1.15,0,0,0-.3-.86,14.21,14.21,0,0,0-3-2.72c-4.15-3-8.67-5.23-12.95-8.35L239,506Z" transform="translate(-18 -80)"/><path class="cls-2" d="M278,513c5.93.37,23.45,5.67,19.16,14-2,2.72-5.27,2.88-8,3.72a51.73,51.73,0,0,0-14.36,5.75c-3.91,2.19-6.69,4.94-5.13,9.63,2.06,6.31,6.7,11.33,10.43,16.9l-.33.37a40.11,40.11,0,0,1-8.71-6.32,24.17,24.17,0,0,1-6.48-9.34c-1.59-4-.29-9.47,3.39-12.07,6.29-4.94,13.84-3.82,20.71-6.46,2-.81,4.65-1.89,5.37-3.83a1.15,1.15,0,0,0-.3-.86,14.21,14.21,0,0,0-3-2.72c-4.15-3-8.67-5.23-12.95-8.35L278,513Z" transform="translate(-18 -80)"/><path class="cls-2" d="M318,503c5.93.37,23.45,5.67,19.16,14-2,2.72-5.27,2.88-8,3.72a51.73,51.73,0,0,0-14.36,5.75c-3.91,2.19-6.69,4.94-5.13,9.63,2.06,6.31,6.7,11.33,10.43,16.9l-.33.37a40.11,40.11,0,0,1-8.71-6.32,24.17,24.17,0,0,1-6.48-9.34c-1.59-4-.29-9.47,3.39-12.07,6.29-4.94,13.84-3.82,20.71-6.46,2-.81,4.65-1.89,5.37-3.83a1.15,1.15,0,0,0-.3-.86,14.21,14.21,0,0,0-3-2.72c-4.15-3-8.67-5.23-12.95-8.35L318,503Z" transform="translate(-18 -80)"/><path class="cls-2" d="M363,500c5.93.37,23.45,5.67,19.16,14-2,2.72-5.27,2.88-8,3.72a51.73,51.73,0,0,0-14.36,5.75c-3.91,2.19-6.69,4.94-5.13,9.63,2.06,6.31,6.7,11.33,10.43,16.9l-.33.37a40.11,40.11,0,0,1-8.71-6.32,24.17,24.17,0,0,1-6.48-9.34c-1.59-4-.29-9.47,3.39-12.07,6.29-4.94,13.84-3.82,20.71-6.46,2-.81,4.65-1.89,5.37-3.83a1.15,1.15,0,0,0-.3-.86,14.21,14.21,0,0,0-3-2.72c-4.15-3-8.67-5.23-12.95-8.35L363,500Z" transform="translate(-18 -80)"/></svg>