<svg id="Layer_1" data-name="Layer 1" xmlns="http://www.w3.org/2000/svg" xmlns:xlink="http://www.w3.org/1999/xlink" viewBox="0 0 551 511"><defs><style>.cls-1{fill:#1367a2;}.cls-2{fill:#fff;}</style></defs><path class="cls-1" d="M299.78,534.33c-72.71,0-141-26.24-192.43-73.9S27.78,349.59,27.78,282.33,56,151.82,107.35,104.23s119.72-73.9,192.43-73.9,141,26.25,192.43,73.9,79.57,110.84,79.57,178.1-28.26,130.52-79.57,178.1S372.48,534.33,299.78,534.33Z" transform="translate(-24.28 -26.83)"/><path class="cls-2" d="M299.78,33.83a285.49,285.49,0,0,1,104.68,19.6,269.75,269.75,0,0,1,85.37,53.37,247.51,247.51,0,0,1,57.43,79,232.23,232.23,0,0,1,0,193.09,247.62,247.62,0,0,1-57.43,79,269.93,269.93,0,0,1-85.37,53.37,289.48,289.48,0,0,1-209.36,0,269.93,269.93,0,0,1-85.37-53.37,247.62,247.62,0,0,1-57.43-79,232.23,232.23,0,0,1,0-193.09,247.51,247.51,0,0,1,57.43-79A269.75,269.75,0,0,1,195.1,53.43a285.42,285.42,0,0,1,104.68-19.6m0-7c-152.16,0-275.5,114.39-275.5,255.5s123.34,255.5,275.5,255.5,275.5-114.39,275.5-255.5S451.93,26.83,299.78,26.83Z" transform="translate(-24.28 -26.83)"/><image width="851" height="660" transform="translate(58.72 141.17) scale(0.44 0.42)" xlink:href="../../../../Sjernetegn/Cancer/krebs.png"/><path class="cls-2" d="M315.81,57.66A95.82,95.82,0,0,1,314,68.07c-.36,1.66-.74,3.3-1.12,4.94a44.41,44.41,0,0,1-1.32,4.87c-1.09,3.2-2.63,6.47-3,9.91a29.91,29.91,0,0,0,.92,10.39,42.86,42.86,0,0,1,.94,5.42,27.79,27.79,0,0,1-.09,5.69,31.61,31.61,0,0,1-3,11,34.25,34.25,0,0,1-6.62,9.09,32.62,32.62,0,0,1-4.23,3.57,28.12,28.12,0,0,1-4.77,2.8l-.48-.5c.41-.84.86-1.62,1.29-2.4s.87-1.55,1.31-2.3c.83-1.54,1.69-3,2.47-4.51a97.53,97.53,0,0,0,4.23-8.86,66.74,66.74,0,0,0,3.25-9c.42-1.56.68-3.14,1-4.77s.61-3.33.86-5.08a64,64,0,0,0,.66-10.63c0-3.55-.74-7.25-.48-10.93a22.29,22.29,0,0,1,1-5.37,37.06,37.06,0,0,1,2-5.1,28.79,28.79,0,0,1,6.35-9Z" transform="translate(-24.28 -26.83)"/><path class="cls-2" d="M358.12,39.34a95.35,95.35,0,0,1-1.82,10.41c-.35,1.67-.73,3.31-1.11,4.94a46.11,46.11,0,0,1-1.32,4.87c-1.1,3.2-2.64,6.47-3,9.92a29.85,29.85,0,0,0,.91,10.38,41,41,0,0,1,.94,5.43,27.69,27.69,0,0,1-.08,5.68,31.56,31.56,0,0,1-3,11,34.06,34.06,0,0,1-6.61,9.09,32.79,32.79,0,0,1-4.24,3.58,27.65,27.65,0,0,1-4.76,2.8l-.48-.51c.4-.84.85-1.62,1.29-2.39s.87-1.55,1.3-2.31c.83-1.54,1.7-3,2.48-4.5a97.56,97.56,0,0,0,4.22-8.87,64.52,64.52,0,0,0,3.26-9c.41-1.55.68-3.13,1-4.76s.61-3.33.85-5.09a62.81,62.81,0,0,0,.66-10.62c0-3.55-.74-7.26-.48-10.93a22.7,22.7,0,0,1,1.05-5.37,35.22,35.22,0,0,1,2-5.11A28.89,28.89,0,0,1,357.49,39Z" transform="translate(-24.28 -26.83)"/><path class="cls-2" d="M386.88,93c-.36,3.89-1.06,7-1.6,10.5-.31,3.42-2.38,6.49-2.21,10.06.11,3.8,2.94,6.89,4.1,10.55,2.54,9.11-3.59,17.49-12.34,19.71a16.86,16.86,0,0,1-4,.61l-.32-.62c.39-.57.79-1.08,1.2-1.57,3.67-4.57,7.68-8.94,9.39-14.5a30.18,30.18,0,0,0-.29-13.82c-.6-2.43-1.84-5-2.07-7.74a15.19,15.19,0,0,1,7.53-13.57l.58.39Z" transform="translate(-24.28 -26.83)"/></svg>