<svg id="Layer_1" data-name="Layer 1" xmlns="http://www.w3.org/2000/svg" viewBox="0 0 551 511"><defs><style>.cls-1{fill:#ffa750;}.cls-2{fill:#fff;}</style></defs><path class="cls-1" d="M300.78,534.33c-72.71,0-141-26.24-192.43-73.9S28.78,349.59,28.78,282.33,57,151.82,108.35,104.23s119.72-73.9,192.43-73.9,141,26.25,192.43,73.9,79.57,110.84,79.57,178.1-28.26,130.52-79.57,178.1S373.48,534.33,300.78,534.33Z" transform="translate(-25.28 -26.83)"/><path class="cls-2" d="M300.78,33.83a285.49,285.49,0,0,1,104.68,19.6,269.75,269.75,0,0,1,85.37,53.37,247.51,247.51,0,0,1,57.43,79,232.23,232.23,0,0,1,0,193.09,247.62,247.62,0,0,1-57.43,79,269.93,269.93,0,0,1-85.37,53.37,289.48,289.48,0,0,1-209.36,0,269.93,269.93,0,0,1-85.37-53.37,247.62,247.62,0,0,1-57.43-79,232.23,232.23,0,0,1,0-193.09,247.51,247.51,0,0,1,57.43-79A269.75,269.75,0,0,1,196.1,53.43a285.42,285.42,0,0,1,104.68-19.6m0-7c-152.16,0-275.5,114.39-275.5,255.5s123.34,255.5,275.5,255.5,275.5-114.39,275.5-255.5S452.93,26.83,300.78,26.83Z" transform="translate(-25.28 -26.83)"/><polygon class="cls-2" points="444.3 255.84 442.39 254.44 439.99 254.24 441.46 252.43 441.67 250.15 443.58 251.55 445.99 251.75 444.51 253.56 444.3 255.84"/><path class="cls-2" d="M470.15,275.64a11.2,11.2,0,0,1-3.41,8.72,11.18,11.18,0,0,1,3.41-8.72Z" transform="translate(-25.28 -26.83)"/><path class="cls-2" d="M472.94,281.06a12.1,12.1,0,0,1-9.29-3,12.11,12.11,0,0,1,9.29,3Z" transform="translate(-25.28 -26.83)"/><polygon class="cls-2" points="452.69 353.3 450.78 351.9 448.38 351.7 449.85 349.89 450.06 347.61 451.97 349.01 454.37 349.21 452.9 351.02 452.69 353.3"/><path class="cls-2" d="M478.54,373.1a11.23,11.23,0,0,1-3.41,8.72,11.15,11.15,0,0,1,3.41-8.72Z" transform="translate(-25.28 -26.83)"/><path class="cls-2" d="M481.32,378.52a12.07,12.07,0,0,1-9.28-3,12.07,12.07,0,0,1,9.28,3Z" transform="translate(-25.28 -26.83)"/><polygon class="cls-2" points="345.4 438.9 343.49 437.5 341.08 437.31 342.56 435.5 342.77 433.22 344.68 434.61 347.08 434.81 345.61 436.62 345.4 438.9"/><path class="cls-2" d="M371.24,458.7a11.17,11.17,0,0,1-3.41,8.73,11.24,11.24,0,0,1,3.41-8.73Z" transform="translate(-25.28 -26.83)"/><path class="cls-2" d="M374,464.12a12.11,12.11,0,0,1-9.29-3,12.15,12.15,0,0,1,9.29,3Z" transform="translate(-25.28 -26.83)"/><polygon class="cls-2" points="209.76 403.04 207.85 401.64 205.45 401.44 206.92 399.63 207.13 397.36 209.04 398.75 211.44 398.95 209.97 400.76 209.76 403.04"/><path class="cls-2" d="M235.61,422.84a11.22,11.22,0,0,1-3.41,8.72,11.16,11.16,0,0,1,3.41-8.72Z" transform="translate(-25.28 -26.83)"/><path class="cls-2" d="M238.39,428.26a12.07,12.07,0,0,1-9.28-3,12.11,12.11,0,0,1,9.28,3Z" transform="translate(-25.28 -26.83)"/><polygon class="cls-2" points="70.91 351.04 69 349.65 66.6 349.45 68.07 347.64 68.28 345.36 70.19 346.76 72.59 346.95 71.12 348.76 70.91 351.04"/><path class="cls-2" d="M96.76,370.84a11.2,11.2,0,0,1-3.41,8.73,11.22,11.22,0,0,1,3.41-8.73Z" transform="translate(-25.28 -26.83)"/><path class="cls-2" d="M99.54,376.27a12.12,12.12,0,0,1-9.28-3,12.07,12.07,0,0,1,9.28,3Z" transform="translate(-25.28 -26.83)"/><polygon class="cls-2" points="119.82 236.75 117.91 235.35 115.51 235.15 116.98 233.34 117.19 231.07 119.1 232.46 121.5 232.66 120.03 234.47 119.82 236.75"/><path class="cls-2" d="M145.67,256.55a11.22,11.22,0,0,1-3.41,8.72,11.16,11.16,0,0,1,3.41-8.72Z" transform="translate(-25.28 -26.83)"/><path class="cls-2" d="M148.45,262a12.07,12.07,0,0,1-9.28-3,12.12,12.12,0,0,1,9.28,3Z" transform="translate(-25.28 -26.83)"/><polygon class="cls-2" points="101.31 147.1 99.4 145.7 97 145.5 98.47 143.69 98.68 141.41 100.59 142.81 102.99 143.01 101.52 144.82 101.31 147.1"/><path class="cls-2" d="M127.16,166.9a11.23,11.23,0,0,1-3.41,8.72,11.15,11.15,0,0,1,3.41-8.72Z" transform="translate(-25.28 -26.83)"/><path class="cls-2" d="M129.94,172.32a12.07,12.07,0,0,1-9.28-3,12.07,12.07,0,0,1,9.28,3Z" transform="translate(-25.28 -26.83)"/><polygon class="cls-2" points="191.25 69.59 189.34 68.19 186.94 68 188.41 66.19 188.62 63.91 190.53 65.3 192.93 65.5 191.46 67.31 191.25 69.59"/><path class="cls-2" d="M217.1,89.39a11.24,11.24,0,0,1-3.41,8.73,11.17,11.17,0,0,1,3.41-8.73Z" transform="translate(-25.28 -26.83)"/><path class="cls-2" d="M219.88,94.81a12.09,12.09,0,0,1-9.28-3,12.11,12.11,0,0,1,9.28,3Z" transform="translate(-25.28 -26.83)"/><polygon class="cls-2" points="70.65 197.13 68.75 195.73 66.34 195.53 67.81 193.72 68.03 191.44 69.93 192.84 72.34 193.04 70.86 194.85 70.65 197.13"/><path class="cls-2" d="M96.5,216.93a11.15,11.15,0,0,1-3.41,8.72,11.23,11.23,0,0,1,3.41-8.72Z" transform="translate(-25.28 -26.83)"/><path class="cls-2" d="M99.29,222.35a12.1,12.1,0,0,1-9.29-3,12.15,12.15,0,0,1,9.29,3Z" transform="translate(-25.28 -26.83)"/><polygon class="cls-2" points="388.67 50.19 386.76 48.8 384.36 48.6 385.83 46.79 386.04 44.51 387.95 45.91 390.35 46.1 388.88 47.92 388.67 50.19"/><path class="cls-2" d="M414.52,70a11.24,11.24,0,0,1-3.41,8.73A11.18,11.18,0,0,1,414.52,70Z" transform="translate(-25.28 -26.83)"/><path class="cls-2" d="M417.3,75.42a12.12,12.12,0,0,1-9.28-3,12.07,12.07,0,0,1,9.28,3Z" transform="translate(-25.28 -26.83)"/><polygon class="cls-2" points="297.97 35.47 296.06 34.07 293.65 33.87 295.13 32.06 295.34 29.78 297.25 31.18 299.65 31.38 298.18 33.19 297.97 35.47"/><path class="cls-2" d="M323.81,55.26a11.2,11.2,0,0,1-3.4,8.73,11.21,11.21,0,0,1,3.4-8.73Z" transform="translate(-25.28 -26.83)"/><path class="cls-2" d="M326.6,60.69a12.15,12.15,0,0,1-9.29-3,12.11,12.11,0,0,1,9.29,3Z" transform="translate(-25.28 -26.83)"/></svg>