<svg id="Layer_1" data-name="Layer 1" xmlns="http://www.w3.org/2000/svg" xmlns:xlink="http://www.w3.org/1999/xlink" viewBox="0 0 551 511"><defs><style>.cls-1{fill:#1367a2;}.cls-2{fill:#fff;}</style></defs><path class="cls-1" d="M297.78,524.33c-72.71,0-141-26.24-192.43-73.9S25.78,339.59,25.78,272.33,54,141.82,105.35,94.23s119.72-73.9,192.43-73.9,141,26.25,192.43,73.9,79.57,110.84,79.57,178.1-28.26,130.52-79.57,178.1S370.48,524.33,297.78,524.33Z" transform="translate(-22.28 -16.83)"/><path class="cls-2" d="M297.78,23.83a285.49,285.49,0,0,1,104.68,19.6A269.75,269.75,0,0,1,487.83,96.8a247.51,247.51,0,0,1,57.43,79,232.23,232.23,0,0,1,0,193.09,247.62,247.62,0,0,1-57.43,79,269.93,269.93,0,0,1-85.37,53.37,289.48,289.48,0,0,1-209.36,0,269.93,269.93,0,0,1-85.37-53.37,247.62,247.62,0,0,1-57.43-79,232.23,232.23,0,0,1,0-193.09,247.51,247.51,0,0,1,57.43-79A269.75,269.75,0,0,1,193.1,43.43a285.42,285.42,0,0,1,104.68-19.6m0-7c-152.16,0-275.5,114.39-275.5,255.5s123.34,255.5,275.5,255.5,275.5-114.39,275.5-255.5S449.93,16.83,297.78,16.83Z" transform="translate(-22.28 -16.83)"/><image width="799" height="726" transform="translate(115.72 91.17) scale(0.39 0.38)" xlink:href="../../../../Sjernetegn/Scorpio/scorpio.png"/><path class="cls-2" d="M362.64,207.18c4.82,1.58,9.57,3.28,14.33,5l7.12,2.6,7.07,2.69c2.35.91,4.76,1.69,7.15,2.52a44.76,44.76,0,0,1,6.89,3.09,70.33,70.33,0,0,1,6.45,4.06,42.84,42.84,0,0,1,6,5.06l-.28.64a43.19,43.19,0,0,1-7.76-1.19,71.48,71.48,0,0,1-7.3-2.19,44.35,44.35,0,0,1-6.86-3.16c-2.19-1.26-4.37-2.55-6.6-3.73L382.16,219l-6.63-3.65c-4.41-2.47-8.82-4.93-13.17-7.52Z" transform="translate(-22.28 -16.83)"/><path class="cls-2" d="M355.1,191.74c9.44-2.54,19.86-5,29.45-7.14,2.46-.54,4.9-1.21,7.35-1.84A54.52,54.52,0,0,1,407,181.38a42.29,42.29,0,0,1,7.79.92l.11.69A54.39,54.39,0,0,1,393,189.61c-4.39.2-10.67.8-15.1,1.24-7.32.59-15.38,1.23-22.68,1.59l-.11-.7Z" transform="translate(-22.28 -16.83)"/><path class="cls-2" d="M361.39,179.23c6.87-7,14.61-14.37,21.82-21,1.86-1.71,3.63-3.52,5.43-5.3A54.79,54.79,0,0,1,401,144.1a42.67,42.67,0,0,1,7.19-3.13l.45.54A54.67,54.67,0,0,1,393,158.27c-3.69,2.39-8.81,6.07-12.41,8.68-6,4.21-12.66,8.83-18.79,12.82l-.44-.54Z" transform="translate(-22.28 -16.83)"/></svg>