<svg id="Layer_1" data-name="Layer 1" xmlns="http://www.w3.org/2000/svg" viewBox="0 0 551 511"><defs><style>.cls-1{fill:#ffa750;}.cls-2{fill:#fff;}</style></defs><path class="cls-1" d="M291.78,550.33c-72.71,0-141-26.24-192.43-73.9S19.78,365.59,19.78,298.33,48,167.82,99.35,120.23s119.72-73.9,192.43-73.9,141,26.25,192.43,73.9,79.57,110.84,79.57,178.1-28.26,130.52-79.57,178.1S364.48,550.33,291.78,550.33Z" transform="translate(-16.28 -42.83)"/><path class="cls-2" d="M291.78,49.83a285.49,285.49,0,0,1,104.68,19.6,269.75,269.75,0,0,1,85.37,53.37,247.51,247.51,0,0,1,57.43,79,232.23,232.23,0,0,1,0,193.09,247.62,247.62,0,0,1-57.43,79,269.93,269.93,0,0,1-85.37,53.37,289.48,289.48,0,0,1-209.36,0,269.93,269.93,0,0,1-85.37-53.37,247.62,247.62,0,0,1-57.43-79,232.23,232.23,0,0,1,0-193.09,247.51,247.51,0,0,1,57.43-79A269.75,269.75,0,0,1,187.1,69.43a285.42,285.42,0,0,1,104.68-19.6m0-7c-152.16,0-275.5,114.39-275.5,255.5s123.34,255.5,275.5,255.5,275.5-114.39,275.5-255.5S443.93,42.83,291.78,42.83Z" transform="translate(-16.28 -42.83)"/><path class="cls-2" d="M350.37,270.17c8.47-3.85,17-7.53,25.5-11.3l12.79-5.54,12.83-5.44c4.28-1.81,8.52-3.74,12.77-5.62s8.58-3.56,13-5,8.86-2.83,13.37-4a136.28,136.28,0,0,1,13.76-3l.26.66a136.88,136.88,0,0,1-12.24,7q-6.24,3.18-12.63,6t-13,5c-4.41,1.45-8.85,2.86-13.23,4.38l-13.17,4.56-13.21,4.46c-8.84,2.9-17.64,5.89-26.5,8.7Z" transform="translate(-16.28 -42.83)"/><path class="cls-2" d="M376.75,281.68c17.93,1.39,37.58,3.15,55.54,5,9.24.93,18.56,1.28,27.71,3a179.38,179.38,0,0,1,27.19,6.82l-.1.7a135.31,135.31,0,0,1-14.08.25,182.78,182.78,0,0,1-27.74-2.72c-4.57-.85-9.14-1.74-13.72-2.51-6.85-1.13-20.64-3.51-27.47-4.74-9.14-1.7-18.3-3.3-27.42-5.09l.09-.7Z" transform="translate(-16.28 -42.83)"/><path class="cls-2" d="M369.09,307.76c15.41,9.28,32.17,19.67,47.41,29.36,7.84,5,16,9.47,23.41,15.12a176.66,176.66,0,0,1,21.24,18.29l-.39.58A135,135,0,0,1,448.05,365a183,183,0,0,1-23.57-14.88c-3.7-2.81-7.38-5.65-11.14-8.39-5.61-4.08-16.87-12.4-22.42-16.56-7.41-5.62-14.87-11.16-22.23-16.85l.4-.58Z" transform="translate(-16.28 -42.83)"/><path class="cls-2" d="M354.41,313.92c6.08,16.93,12.51,35.58,18.2,52.72,2.93,8.81,6.42,17.46,8.59,26.51a178.44,178.44,0,0,1,4.91,27.6l-.68.2a137.7,137.7,0,0,1-6-12.75,182.78,182.78,0,0,1-8.88-26.43c-1.09-4.51-2.15-9-3.32-13.54-1.77-6.71-5.25-20.27-6.92-27-2.19-9-4.48-18.05-6.58-27.11l.67-.2Z" transform="translate(-16.28 -42.83)"/></svg>