<svg id="Layer_1" data-name="Layer 1" xmlns="http://www.w3.org/2000/svg" viewBox="0 0 551 511"><defs><style>.cls-1,.cls-3{fill:#fc7eab;}.cls-2{fill:#fff;}.cls-3{stroke:#fff;stroke-miterlimit:10;stroke-width:7px;}</style></defs><path class="cls-1" d="M303.78,530.33c-72.71,0-141-26.24-192.43-73.9S31.78,345.59,31.78,278.33,60,147.82,111.35,100.23s119.72-73.9,192.43-73.9,141,26.25,192.43,73.9,79.57,110.84,79.57,178.1-28.26,130.52-79.57,178.1S376.48,530.33,303.78,530.33Z" transform="translate(-28.28 -22.83)"/><path class="cls-2" d="M303.78,29.83a285.49,285.49,0,0,1,104.68,19.6,269.75,269.75,0,0,1,85.37,53.37,247.51,247.51,0,0,1,57.43,79,232.23,232.23,0,0,1,0,193.09,247.62,247.62,0,0,1-57.43,79,269.93,269.93,0,0,1-85.37,53.37,289.48,289.48,0,0,1-209.36,0,269.93,269.93,0,0,1-85.37-53.37,247.62,247.62,0,0,1-57.43-79,232.23,232.23,0,0,1,0-193.09,247.51,247.51,0,0,1,57.43-79A269.75,269.75,0,0,1,199.1,49.43a285.42,285.42,0,0,1,104.68-19.6m0-7c-152.16,0-275.5,114.39-275.5,255.5s123.34,255.5,275.5,255.5,275.5-114.39,275.5-255.5S455.93,22.83,303.78,22.83Z" transform="translate(-28.28 -22.83)"/><path class="cls-3" d="M490.5,270.25l-30,8.75V261.5h60Z" transform="translate(-28.28 -22.83)"/><path class="cls-3" d="M493.1,302.47l-11.76.41,3.36-8.64,20.16,7.82Z" transform="translate(-28.28 -22.83)"/><path class="cls-3" d="M470.5,349.25l-26-17.29,13.38-11.28,38.68,45.86Z" transform="translate(-28.28 -22.83)"/><path class="cls-3" d="M500,330.91l-5.68.33,1.71-4.4,9.64,3.74Z" transform="translate(-28.28 -22.83)"/></svg>