<svg id="Layer_1" data-name="Layer 1" xmlns="http://www.w3.org/2000/svg" xmlns:xlink="http://www.w3.org/1999/xlink" viewBox="0 0 551 511"><defs><style>.cls-1{fill:#5762b2;}.cls-2{fill:#fff;}</style></defs><path class="cls-1" d="M299.5,534.5c-72.7,0-141-26.25-192.43-73.9S27.5,349.76,27.5,282.5,55.76,152,107.07,104.4,226.8,30.5,299.5,30.5s141,26.25,192.43,73.9S571.5,215.24,571.5,282.5,543.24,413,491.93,460.6,372.2,534.5,299.5,534.5Z" transform="translate(-24 -27)"/><path class="cls-2" d="M299.5,34A285.29,285.29,0,0,1,404.18,53.6,269.57,269.57,0,0,1,489.55,107,247.47,247.47,0,0,1,547,186a232.25,232.25,0,0,1,0,193.1,247.47,247.47,0,0,1-57.43,79,269.57,269.57,0,0,1-85.37,53.37,289.34,289.34,0,0,1-209.36,0A269.57,269.57,0,0,1,109.45,458a247.47,247.47,0,0,1-57.43-79A232.25,232.25,0,0,1,52,186a247.47,247.47,0,0,1,57.43-79A269.57,269.57,0,0,1,194.82,53.6,285.29,285.29,0,0,1,299.5,34m0-7C147.35,27,24,141.39,24,282.5S147.35,538,299.5,538,575,423.61,575,282.5,451.65,27,299.5,27Z" transform="translate(-24 -27)"/><image width="982" height="1360" transform="matrix(0.17, 0.05, -0.05, 0.19, 335.31, 148)" xlink:href="../../../../Sjernetegn/Gemini/gemini.png"/><image width="982" height="1360" transform="matrix(0.19, 0.04, -0.04, 0.18, 123.53, 34.89)" xlink:href="../../../../Sjernetegn/Gemini/gemini-kopi.png"/><polygon class="cls-2" points="324.89 37.12 322.98 35.73 320.58 35.53 322.05 33.72 322.26 31.44 324.17 32.84 326.57 33.04 325.1 34.85 324.89 37.12"/><path class="cls-2" d="M349.46,57.09a11.2,11.2,0,0,1-3.41,8.73,11.2,11.2,0,0,1,3.41-8.73Z" transform="translate(-24 -27)"/><path class="cls-2" d="M352.24,62.51a12.09,12.09,0,0,1-9.28-3,12.11,12.11,0,0,1,9.28,3Z" transform="translate(-24 -27)"/><polygon class="cls-2" points="430.89 128.12 428.98 126.73 426.58 126.53 428.05 124.72 428.26 122.44 430.17 123.84 432.57 124.04 431.1 125.85 430.89 128.12"/><path class="cls-2" d="M455.46,148.09a11.2,11.2,0,0,1-3.41,8.73,11.2,11.2,0,0,1,3.41-8.73Z" transform="translate(-24 -27)"/><path class="cls-2" d="M458.24,153.51a12.09,12.09,0,0,1-9.28-3,12.11,12.11,0,0,1,9.28,3Z" transform="translate(-24 -27)"/><polygon class="cls-2" points="305.89 170.12 303.98 168.73 301.58 168.53 303.05 166.72 303.26 164.44 305.17 165.84 307.57 166.04 306.1 167.85 305.89 170.12"/><path class="cls-2" d="M330.46,190.09a11.2,11.2,0,0,1-3.41,8.73,11.2,11.2,0,0,1,3.41-8.73Z" transform="translate(-24 -27)"/><path class="cls-2" d="M333.24,195.51a12.09,12.09,0,0,1-9.28-3,12.11,12.11,0,0,1,9.28,3Z" transform="translate(-24 -27)"/><polygon class="cls-2" points="500.11 291.87 498.2 290.47 495.8 290.27 497.27 288.46 497.48 286.19 499.39 287.58 501.8 287.78 500.32 289.59 500.11 291.87"/><path class="cls-2" d="M524.68,311.83a11.17,11.17,0,0,1-3.41,8.73,11.25,11.25,0,0,1,3.41-8.73Z" transform="translate(-24 -27)"/><path class="cls-2" d="M527.47,317.26a12.13,12.13,0,0,1-9.29-3,12.11,12.11,0,0,1,9.29,3Z" transform="translate(-24 -27)"/><polygon class="cls-2" points="190.11 467.87 188.2 466.47 185.8 466.27 187.27 464.46 187.48 462.19 189.39 463.58 191.79 463.78 190.32 465.59 190.11 467.87"/><path class="cls-2" d="M214.68,487.83a11.17,11.17,0,0,1-3.41,8.73,11.25,11.25,0,0,1,3.41-8.73Z" transform="translate(-24 -27)"/><path class="cls-2" d="M217.47,493.26a12.13,12.13,0,0,1-9.29-3,12.11,12.11,0,0,1,9.29,3Z" transform="translate(-24 -27)"/><polygon class="cls-2" points="112.11 335.87 110.2 334.47 107.8 334.27 109.27 332.46 109.48 330.19 111.39 331.58 113.8 331.78 112.32 333.59 112.11 335.87"/><path class="cls-2" d="M136.68,355.83a11.17,11.17,0,0,1-3.41,8.73,11.25,11.25,0,0,1,3.41-8.73Z" transform="translate(-24 -27)"/><path class="cls-2" d="M139.47,361.26a12.13,12.13,0,0,1-9.29-3,12.11,12.11,0,0,1,9.29,3Z" transform="translate(-24 -27)"/><polygon class="cls-2" points="82.11 166.87 80.2 165.47 77.8 165.27 79.27 163.46 79.48 161.19 81.39 162.58 83.8 162.78 82.32 164.59 82.11 166.87"/><path class="cls-2" d="M106.68,186.83a11.17,11.17,0,0,1-3.41,8.73,11.25,11.25,0,0,1,3.41-8.73Z" transform="translate(-24 -27)"/><path class="cls-2" d="M109.47,192.26a12.13,12.13,0,0,1-9.29-3,12.11,12.11,0,0,1,9.29,3Z" transform="translate(-24 -27)"/><polygon class="cls-2" points="300.11 449.87 298.2 448.47 295.8 448.27 297.27 446.46 297.48 444.19 299.39 445.58 301.8 445.78 300.32 447.59 300.11 449.87"/><path class="cls-2" d="M324.68,469.83a11.17,11.17,0,0,1-3.41,8.73,11.25,11.25,0,0,1,3.41-8.73Z" transform="translate(-24 -27)"/><path class="cls-2" d="M327.47,475.26a12.13,12.13,0,0,1-9.29-3,12.11,12.11,0,0,1,9.29,3Z" transform="translate(-24 -27)"/><polygon class="cls-2" points="218.11 364.87 216.2 363.47 213.8 363.27 215.27 361.46 215.48 359.19 217.39 360.58 219.79 360.78 218.32 362.59 218.11 364.87"/><path class="cls-2" d="M242.68,384.83a11.17,11.17,0,0,1-3.41,8.73,11.25,11.25,0,0,1,3.41-8.73Z" transform="translate(-24 -27)"/><path class="cls-2" d="M245.47,390.26a12.13,12.13,0,0,1-9.29-3,12.11,12.11,0,0,1,9.29,3Z" transform="translate(-24 -27)"/></svg>