<svg id="Layer_1" data-name="Layer 1" xmlns="http://www.w3.org/2000/svg" xmlns:xlink="http://www.w3.org/1999/xlink" viewBox="0 0 551 511"><defs><style>.cls-1{fill:#fc7eab;}.cls-2{fill:#fff;}</style></defs><path class="cls-1" d="M304.5,538.5c-72.7,0-141-26.25-192.43-73.9S32.5,353.76,32.5,286.5,60.76,156,112.07,108.4,231.8,34.5,304.5,34.5s141,26.25,192.43,73.9S576.5,219.24,576.5,286.5,548.24,417,496.93,464.6,377.2,538.5,304.5,538.5Z" transform="translate(-29 -31)"/><path class="cls-2" d="M304.5,38A285.29,285.29,0,0,1,409.18,57.6,269.57,269.57,0,0,1,494.55,111,247.47,247.47,0,0,1,552,190a232.25,232.25,0,0,1,0,193.1,247.47,247.47,0,0,1-57.43,79,269.57,269.57,0,0,1-85.37,53.37,289.34,289.34,0,0,1-209.36,0A269.57,269.57,0,0,1,114.45,462a247.47,247.47,0,0,1-57.43-79A232.25,232.25,0,0,1,57,190a247.47,247.47,0,0,1,57.43-79A269.57,269.57,0,0,1,199.82,57.6,285.29,285.29,0,0,1,304.5,38m0-7C152.35,31,29,145.39,29,286.5S152.35,542,304.5,542,580,427.61,580,286.5,456.65,31,304.5,31Z" transform="translate(-29 -31)"/><image width="1079" height="880" transform="translate(105 105) scale(0.33 0.34)" xlink:href="../../../../Sjernetegn/Taurus/tyr2.png"/><polygon class="cls-2" points="317.45 45.49 315.54 44.09 313.14 43.9 314.61 42.09 314.82 39.81 316.73 41.2 319.13 41.4 317.66 43.21 317.45 45.49"/><path class="cls-2" d="M347,69.46a11.18,11.18,0,0,1-3.41,8.72A11.2,11.2,0,0,1,347,69.46Z" transform="translate(-29 -31)"/><path class="cls-2" d="M349.81,74.88a12.1,12.1,0,0,1-9.29-3,12.11,12.11,0,0,1,9.29,3Z" transform="translate(-29 -31)"/><polygon class="cls-2" points="203.6 97.12 201.69 95.73 199.29 95.53 200.76 93.72 200.97 91.44 202.88 92.84 205.28 93.03 203.81 94.85 203.6 97.12"/><path class="cls-2" d="M233.17,121.09a11.15,11.15,0,0,1-3.41,8.72,11.23,11.23,0,0,1,3.41-8.72Z" transform="translate(-29 -31)"/><path class="cls-2" d="M236,126.51a12.1,12.1,0,0,1-9.29-3,12.15,12.15,0,0,1,9.29,3Z" transform="translate(-29 -31)"/><polygon class="cls-2" points="329.56 153.89 327.65 152.49 325.24 152.29 326.72 150.48 326.93 148.21 328.84 149.6 331.24 149.8 329.76 151.61 329.56 153.89"/><path class="cls-2" d="M359.13,177.86a11.23,11.23,0,0,1-3.41,8.72,11.15,11.15,0,0,1,3.41-8.72Z" transform="translate(-29 -31)"/><path class="cls-2" d="M361.91,183.28a12.07,12.07,0,0,1-9.28-3,12.09,12.09,0,0,1,9.28,3Z" transform="translate(-29 -31)"/><polygon class="cls-2" points="499.44 236.64 497.53 235.25 495.13 235.05 496.6 233.24 496.81 230.96 498.72 232.36 501.12 232.56 499.65 234.37 499.44 236.64"/><path class="cls-2" d="M529,260.61a11.22,11.22,0,0,1-3.41,8.72,11.16,11.16,0,0,1,3.41-8.72Z" transform="translate(-29 -31)"/><path class="cls-2" d="M531.79,266a12.07,12.07,0,0,1-9.28-3,12.11,12.11,0,0,1,9.28,3Z" transform="translate(-29 -31)"/><polygon class="cls-2" points="484.75 358.24 482.84 356.84 480.44 356.64 481.91 354.83 482.12 352.55 484.03 353.95 486.43 354.15 484.96 355.96 484.75 358.24"/><path class="cls-2" d="M514.32,382.2a11.2,11.2,0,0,1-3.41,8.73,11.17,11.17,0,0,1,3.41-8.73Z" transform="translate(-29 -31)"/><path class="cls-2" d="M517.1,387.62a12.09,12.09,0,0,1-9.28-3,12.11,12.11,0,0,1,9.28,3Z" transform="translate(-29 -31)"/><polygon class="cls-2" points="286.62 429.6 284.71 428.2 282.31 428 283.78 426.19 283.99 423.92 285.9 425.31 288.31 425.51 286.83 427.32 286.62 429.6"/><path class="cls-2" d="M316.19,453.57a11.16,11.16,0,0,1-3.41,8.72,11.22,11.22,0,0,1,3.41-8.72Z" transform="translate(-29 -31)"/><path class="cls-2" d="M319,459a12.1,12.1,0,0,1-9.29-3,12.11,12.11,0,0,1,9.29,3Z" transform="translate(-29 -31)"/><polygon class="cls-2" points="134.39 310.7 132.48 309.31 130.07 309.11 131.55 307.3 131.76 305.02 133.67 306.42 136.07 306.62 134.6 308.43 134.39 310.7"/><path class="cls-2" d="M164,334.67a11.24,11.24,0,0,1-3.41,8.73,11.17,11.17,0,0,1,3.41-8.73Z" transform="translate(-29 -31)"/><path class="cls-2" d="M166.74,340.09a12.07,12.07,0,0,1-9.28-3,12.12,12.12,0,0,1,9.28,3Z" transform="translate(-29 -31)"/><polygon class="cls-2" points="23.25 259.17 21.34 257.77 18.94 257.57 20.41 255.76 20.62 253.48 22.53 254.88 24.93 255.08 23.46 256.89 23.25 259.17"/><path class="cls-2" d="M52.82,283.13a11.2,11.2,0,0,1-3.41,8.73,11.17,11.17,0,0,1,3.41-8.73Z" transform="translate(-29 -31)"/><path class="cls-2" d="M55.6,288.56a12.16,12.16,0,0,1-9.28-3,12,12,0,0,1,9.28,3Z" transform="translate(-29 -31)"/><polygon class="cls-2" points="155.77 428.74 153.86 427.35 151.46 427.15 152.93 425.34 153.14 423.06 155.05 424.46 157.45 424.66 155.98 426.47 155.77 428.74"/><path class="cls-2" d="M185.34,452.71a11.17,11.17,0,0,1-3.41,8.73,11.24,11.24,0,0,1,3.41-8.73Z" transform="translate(-29 -31)"/><path class="cls-2" d="M188.13,458.13a12.1,12.1,0,0,1-9.29-3,12.15,12.15,0,0,1,9.29,3Z" transform="translate(-29 -31)"/></svg>