<svg id="Layer_1" data-name="Layer 1" xmlns="http://www.w3.org/2000/svg" viewBox="0 0 551 511"><defs><style>.cls-1{fill:#5762b2;}.cls-2{fill:#fff;}</style></defs><path class="cls-1" d="M308.78,540.33c-72.71,0-141-26.24-192.43-73.9S36.78,355.59,36.78,288.33,65,157.82,116.35,110.23s119.72-73.9,192.43-73.9,141,26.25,192.43,73.9,79.57,110.84,79.57,178.1-28.26,130.52-79.57,178.1S381.48,540.33,308.78,540.33Z" transform="translate(-33.28 -32.83)"/><path class="cls-2" d="M308.78,39.83a285.49,285.49,0,0,1,104.68,19.6,269.75,269.75,0,0,1,85.37,53.37,247.51,247.51,0,0,1,57.43,79,232.23,232.23,0,0,1,0,193.09,247.62,247.62,0,0,1-57.43,79,269.93,269.93,0,0,1-85.37,53.37,289.48,289.48,0,0,1-209.36,0,269.93,269.93,0,0,1-85.37-53.37,247.62,247.62,0,0,1-57.43-79,232.23,232.23,0,0,1,0-193.09,247.51,247.51,0,0,1,57.43-79A269.75,269.75,0,0,1,204.1,59.43a285.42,285.42,0,0,1,104.68-19.6m0-7c-152.16,0-275.5,114.39-275.5,255.5s123.34,255.5,275.5,255.5,275.5-114.39,275.5-255.5S460.93,32.83,308.78,32.83Z" transform="translate(-33.28 -32.83)"/><path class="cls-2" d="M246.48,209.85a101.85,101.85,0,0,0-31.35,4.76,98.37,98.37,0,0,0-14.62,5.84A95.53,95.53,0,0,0,187,228.37a81.22,81.22,0,0,0-11.66,10.23c-3.58,3.73-7,7.58-10.23,11.6A152.81,152.81,0,0,0,156,262.87c-2.85,4.42-5.5,9-8.16,13.74l-.66-.22A73.77,73.77,0,0,1,159.51,246a67.78,67.78,0,0,1,11.06-12.44c1-.92,2.08-1.84,3.19-2.67s2.17-1.74,3.29-2.55c2.28-1.58,4.5-3.23,6.87-4.66a100.26,100.26,0,0,1,46.41-14.84,95.1,95.1,0,0,1,16.19.28Z" transform="translate(-33.28 -32.83)"/><path class="cls-2" d="M233.13,258.18a103.35,103.35,0,0,0-49.69,37.55c-5.92,8.53-9.74,18.23-13.22,27.95a180.45,180.45,0,0,0-7.35,30.7h-.7a73.25,73.25,0,0,1,7.55-48.19,100.69,100.69,0,0,1,33.51-35.81,99.49,99.49,0,0,1,29.7-12.88l.2.67Z" transform="translate(-33.28 -32.83)"/><path class="cls-2" d="M246.06,236.61c-21.84,1.24-61.91,5.93-66.88,32a43.52,43.52,0,0,0-.09,11.52l-.65.24a25.23,25.23,0,0,1-4.21-11.92c-1-15.19,10.6-23.72,23.69-27.92a96.91,96.91,0,0,1,24-4.77,156.75,156.75,0,0,1,24.13.13v.7Z" transform="translate(-33.28 -32.83)"/><path class="cls-2" d="M148,302.3c-15.76,15.21-43,44.83-29.82,67.88a43.16,43.16,0,0,0,7.45,8.79l-.34.62a25.27,25.27,0,0,1-11-6.3c-10.64-10.88-7.43-24.89-.25-36.62a97,97,0,0,1,15.1-19.27,156.31,156.31,0,0,1,18.37-15.64l.45.54Z" transform="translate(-33.28 -32.83)"/></svg>