<svg id="Layer_1" data-name="Layer 1" xmlns="http://www.w3.org/2000/svg" xmlns:xlink="http://www.w3.org/1999/xlink" viewBox="0 0 551 511"><defs><style>.cls-1{fill:#ffa750;}.cls-2{fill:#fff;}</style></defs><path class="cls-1" d="M297.78,530.33c-72.71,0-141-26.24-192.43-73.9S25.78,345.59,25.78,278.33,54,147.82,105.35,100.23s119.72-73.9,192.43-73.9,141,26.25,192.43,73.9,79.57,110.84,79.57,178.1-28.26,130.52-79.57,178.1S370.48,530.33,297.78,530.33Z" transform="translate(-22.28 -22.83)"/><path class="cls-2" d="M297.78,29.83a285.49,285.49,0,0,1,104.68,19.6,269.75,269.75,0,0,1,85.37,53.37,247.51,247.51,0,0,1,57.43,79,232.23,232.23,0,0,1,0,193.09,247.62,247.62,0,0,1-57.43,79,269.93,269.93,0,0,1-85.37,53.37,289.48,289.48,0,0,1-209.36,0,269.93,269.93,0,0,1-85.37-53.37,247.62,247.62,0,0,1-57.43-79,232.23,232.23,0,0,1,0-193.09,247.51,247.51,0,0,1,57.43-79A269.75,269.75,0,0,1,193.1,49.43a285.42,285.42,0,0,1,104.68-19.6m0-7c-152.16,0-275.5,114.39-275.5,255.5s123.34,255.5,275.5,255.5,275.5-114.39,275.5-255.5S449.93,22.83,297.78,22.83Z" transform="translate(-22.28 -22.83)"/><image width="1232" height="897" transform="translate(85.72 82.17) scale(0.31 0.36)" xlink:href="../../../../Sjernetegn/Aries/Aries.png"/><polygon class="cls-2" points="259.79 56.17 257.88 54.77 255.48 54.58 256.95 52.77 257.16 50.49 259.07 51.88 261.47 52.08 260 53.89 259.79 56.17"/><path class="cls-2" d="M282.64,72a11.24,11.24,0,0,1-3.41,8.73A11.17,11.17,0,0,1,282.64,72Z" transform="translate(-22.28 -22.83)"/><path class="cls-2" d="M285.42,77.39a12.07,12.07,0,0,1-9.28-3,12.12,12.12,0,0,1,9.28,3Z" transform="translate(-22.28 -22.83)"/><polygon class="cls-2" points="342.93 32.06 341.02 30.66 338.62 30.46 340.1 28.65 340.31 26.38 342.21 27.77 344.62 27.97 343.14 29.78 342.93 32.06"/><path class="cls-2" d="M365.78,47.86a11.15,11.15,0,0,1-3.41,8.72,11.23,11.23,0,0,1,3.41-8.72Z" transform="translate(-22.28 -22.83)"/><path class="cls-2" d="M368.57,53.28a12.1,12.1,0,0,1-9.29-3,12.15,12.15,0,0,1,9.29,3Z" transform="translate(-22.28 -22.83)"/><polygon class="cls-2" points="138.81 55.68 136.9 54.28 134.5 54.08 135.97 52.27 136.18 49.99 138.09 51.39 140.5 51.59 139.02 53.4 138.81 55.68"/><path class="cls-2" d="M161.66,71.48a11.2,11.2,0,0,1-3.41,8.72,11.18,11.18,0,0,1,3.41-8.72Z" transform="translate(-22.28 -22.83)"/><path class="cls-2" d="M164.45,76.9a12.1,12.1,0,0,1-9.29-3,12.11,12.11,0,0,1,9.29,3Z" transform="translate(-22.28 -22.83)"/><polygon class="cls-2" points="465.22 101.28 463.31 99.88 460.9 99.69 462.38 97.87 462.59 95.6 464.5 96.99 466.9 97.19 465.43 99 465.22 101.28"/><path class="cls-2" d="M488.06,117.08a11.15,11.15,0,0,1-3.41,8.72,11.23,11.23,0,0,1,3.41-8.72Z" transform="translate(-22.28 -22.83)"/><path class="cls-2" d="M490.85,122.5a12.11,12.11,0,0,1-9.29-3,12.15,12.15,0,0,1,9.29,3Z" transform="translate(-22.28 -22.83)"/><polygon class="cls-2" points="398.22 163.28 396.31 161.88 393.9 161.69 395.38 159.87 395.59 157.6 397.5 158.99 399.9 159.19 398.43 161 398.22 163.28"/><path class="cls-2" d="M421.06,179.08a11.15,11.15,0,0,1-3.41,8.72,11.23,11.23,0,0,1,3.41-8.72Z" transform="translate(-22.28 -22.83)"/><path class="cls-2" d="M423.85,184.5a12.11,12.11,0,0,1-9.29-3,12.15,12.15,0,0,1,9.29,3Z" transform="translate(-22.28 -22.83)"/><polygon class="cls-2" points="530.22 215.28 528.31 213.88 525.9 213.69 527.38 211.87 527.59 209.6 529.5 210.99 531.9 211.19 530.43 213 530.22 215.28"/><path class="cls-2" d="M553.06,231.08a11.15,11.15,0,0,1-3.41,8.72,11.23,11.23,0,0,1,3.41-8.72Z" transform="translate(-22.28 -22.83)"/><path class="cls-2" d="M555.85,236.5a12.11,12.11,0,0,1-9.29-3,12.15,12.15,0,0,1,9.29,3Z" transform="translate(-22.28 -22.83)"/><polygon class="cls-2" points="492.22 380.28 490.31 378.88 487.9 378.69 489.38 376.87 489.59 374.6 491.5 375.99 493.9 376.19 492.43 378 492.22 380.28"/><path class="cls-2" d="M515.06,396.08a11.15,11.15,0,0,1-3.41,8.72,11.23,11.23,0,0,1,3.41-8.72Z" transform="translate(-22.28 -22.83)"/><path class="cls-2" d="M517.85,401.5a12.11,12.11,0,0,1-9.29-3,12.15,12.15,0,0,1,9.29,3Z" transform="translate(-22.28 -22.83)"/><polygon class="cls-2" points="461.94 188.78 460.03 187.38 457.63 187.18 459.1 185.37 459.31 183.09 461.22 184.49 463.62 184.69 462.15 186.5 461.94 188.78"/><path class="cls-2" d="M484.79,204.58a11.23,11.23,0,0,1-3.41,8.72,11.15,11.15,0,0,1,3.41-8.72Z" transform="translate(-22.28 -22.83)"/><path class="cls-2" d="M487.57,210a12.09,12.09,0,0,1-9.28-3,12.07,12.07,0,0,1,9.28,3Z" transform="translate(-22.28 -22.83)"/><polygon class="cls-2" points="425.92 434.19 424.01 432.79 421.61 432.6 423.08 430.79 423.29 428.51 425.2 429.9 427.6 430.1 426.13 431.91 425.92 434.19"/><path class="cls-2" d="M448.77,450a11.24,11.24,0,0,1-3.41,8.73,11.17,11.17,0,0,1,3.41-8.73Z" transform="translate(-22.28 -22.83)"/><path class="cls-2" d="M451.55,455.41a12.07,12.07,0,0,1-9.28-3,12.11,12.11,0,0,1,9.28,3Z" transform="translate(-22.28 -22.83)"/><polygon class="cls-2" points="351.95 381.03 350.04 379.63 347.64 379.44 349.11 377.63 349.32 375.35 351.23 376.74 353.63 376.94 352.16 378.75 351.95 381.03"/><path class="cls-2" d="M374.8,396.83a11.2,11.2,0,0,1-3.41,8.73,11.2,11.2,0,0,1,3.41-8.73Z" transform="translate(-22.28 -22.83)"/><path class="cls-2" d="M377.59,402.25a12.1,12.1,0,0,1-9.29-3,12.15,12.15,0,0,1,9.29,3Z" transform="translate(-22.28 -22.83)"/><polygon class="cls-2" points="300.95 491.03 299.04 489.63 296.64 489.44 298.11 487.63 298.32 485.35 300.23 486.74 302.63 486.94 301.16 488.75 300.95 491.03"/><path class="cls-2" d="M323.8,506.83a11.2,11.2,0,0,1-3.41,8.73,11.2,11.2,0,0,1,3.41-8.73Z" transform="translate(-22.28 -22.83)"/><path class="cls-2" d="M326.59,512.25a12.1,12.1,0,0,1-9.29-3,12.15,12.15,0,0,1,9.29,3Z" transform="translate(-22.28 -22.83)"/><polygon class="cls-2" points="274.95 400.03 273.04 398.63 270.64 398.44 272.11 396.63 272.32 394.35 274.23 395.74 276.63 395.94 275.16 397.75 274.95 400.03"/><path class="cls-2" d="M297.8,415.83a11.2,11.2,0,0,1-3.41,8.73,11.2,11.2,0,0,1,3.41-8.73Z" transform="translate(-22.28 -22.83)"/><path class="cls-2" d="M300.59,421.25a12.1,12.1,0,0,1-9.29-3,12.15,12.15,0,0,1,9.29,3Z" transform="translate(-22.28 -22.83)"/><polygon class="cls-2" points="236.95 466.03 235.04 464.63 232.64 464.44 234.11 462.63 234.32 460.35 236.23 461.74 238.63 461.94 237.16 463.75 236.95 466.03"/><path class="cls-2" d="M259.8,481.83a11.2,11.2,0,0,1-3.41,8.73,11.2,11.2,0,0,1,3.41-8.73Z" transform="translate(-22.28 -22.83)"/><path class="cls-2" d="M262.59,487.25a12.1,12.1,0,0,1-9.29-3,12.15,12.15,0,0,1,9.29,3Z" transform="translate(-22.28 -22.83)"/><polygon class="cls-2" points="205.85 238.53 203.94 237.14 201.54 236.94 203.01 235.13 203.22 232.85 205.13 234.25 207.53 234.45 206.06 236.26 205.85 238.53"/><path class="cls-2" d="M228.7,254.33a11.24,11.24,0,0,1-3.41,8.73,11.18,11.18,0,0,1,3.41-8.73Z" transform="translate(-22.28 -22.83)"/><path class="cls-2" d="M231.48,259.76a12.12,12.12,0,0,1-9.28-3,12.07,12.07,0,0,1,9.28,3Z" transform="translate(-22.28 -22.83)"/><polygon class="cls-2" points="255.85 309.54 253.94 308.14 251.54 307.94 253.01 306.13 253.22 303.85 255.13 305.25 257.53 305.45 256.06 307.26 255.85 309.54"/><path class="cls-2" d="M278.7,325.33a11.24,11.24,0,0,1-3.41,8.73,11.18,11.18,0,0,1,3.41-8.73Z" transform="translate(-22.28 -22.83)"/><path class="cls-2" d="M281.48,330.76a12.12,12.12,0,0,1-9.28-3,12.07,12.07,0,0,1,9.28,3Z" transform="translate(-22.28 -22.83)"/><polygon class="cls-2" points="220.85 343.54 218.94 342.14 216.54 341.94 218.01 340.13 218.22 337.85 220.13 339.25 222.53 339.45 221.06 341.26 220.85 343.54"/><path class="cls-2" d="M243.7,359.33a11.24,11.24,0,0,1-3.41,8.73,11.18,11.18,0,0,1,3.41-8.73Z" transform="translate(-22.28 -22.83)"/><path class="cls-2" d="M246.48,364.76a12.12,12.12,0,0,1-9.28-3,12.07,12.07,0,0,1,9.28,3Z" transform="translate(-22.28 -22.83)"/><polygon class="cls-2" points="110.81 158.77 108.9 157.38 106.5 157.18 107.97 155.37 108.18 153.09 110.09 154.49 112.49 154.69 111.02 156.5 110.81 158.77"/><path class="cls-2" d="M133.66,174.57a11.24,11.24,0,0,1-3.41,8.73,11.18,11.18,0,0,1,3.41-8.73Z" transform="translate(-22.28 -22.83)"/><path class="cls-2" d="M136.44,180a12.12,12.12,0,0,1-9.28-3,12.07,12.07,0,0,1,9.28,3Z" transform="translate(-22.28 -22.83)"/><polygon class="cls-2" points="77.81 123.77 75.9 122.38 73.5 122.18 74.97 120.37 75.18 118.09 77.09 119.49 79.49 119.69 78.02 121.5 77.81 123.77"/><path class="cls-2" d="M100.66,139.57a11.24,11.24,0,0,1-3.41,8.73,11.18,11.18,0,0,1,3.41-8.73Z" transform="translate(-22.28 -22.83)"/><path class="cls-2" d="M103.44,145a12.12,12.12,0,0,1-9.28-3,12.07,12.07,0,0,1,9.28,3Z" transform="translate(-22.28 -22.83)"/><polygon class="cls-2" points="23.81 219.77 21.9 218.38 19.5 218.18 20.97 216.37 21.18 214.09 23.09 215.49 25.49 215.69 24.02 217.5 23.81 219.77"/><path class="cls-2" d="M46.66,235.57a11.24,11.24,0,0,1-3.41,8.73,11.18,11.18,0,0,1,3.41-8.73Z" transform="translate(-22.28 -22.83)"/><path class="cls-2" d="M49.44,241a12.12,12.12,0,0,1-9.28-3,12.07,12.07,0,0,1,9.28,3Z" transform="translate(-22.28 -22.83)"/><polygon class="cls-2" points="69.81 198.77 67.9 197.38 65.5 197.18 66.97 195.37 67.18 193.09 69.09 194.49 71.49 194.69 70.02 196.5 69.81 198.77"/><path class="cls-2" d="M92.66,214.57a11.24,11.24,0,0,1-3.41,8.73,11.18,11.18,0,0,1,3.41-8.73Z" transform="translate(-22.28 -22.83)"/><path class="cls-2" d="M95.44,220a12.12,12.12,0,0,1-9.28-3,12.07,12.07,0,0,1,9.28,3Z" transform="translate(-22.28 -22.83)"/><polygon class="cls-2" points="58.32 338.63 56.41 337.24 54.01 337.04 55.48 335.23 55.69 332.95 57.6 334.35 60 334.55 58.53 336.36 58.32 338.63"/><path class="cls-2" d="M81.16,354.43a11.17,11.17,0,0,1-3.41,8.73,11.25,11.25,0,0,1,3.41-8.73Z" transform="translate(-22.28 -22.83)"/><path class="cls-2" d="M84,359.86a12.15,12.15,0,0,1-9.29-3,12.11,12.11,0,0,1,9.29,3Z" transform="translate(-22.28 -22.83)"/><polygon class="cls-2" points="101.32 378.63 99.41 377.24 97 377.04 98.48 375.23 98.69 372.95 100.6 374.35 103 374.55 101.53 376.36 101.32 378.63"/><path class="cls-2" d="M124.16,394.43a11.17,11.17,0,0,1-3.41,8.73,11.25,11.25,0,0,1,3.41-8.73Z" transform="translate(-22.28 -22.83)"/><path class="cls-2" d="M127,399.86a12.15,12.15,0,0,1-9.29-3,12.11,12.11,0,0,1,9.29,3Z" transform="translate(-22.28 -22.83)"/><polygon class="cls-2" points="26.32 300.63 24.41 299.24 22 299.04 23.48 297.23 23.69 294.95 25.6 296.35 28 296.55 26.53 298.36 26.32 300.63"/><path class="cls-2" d="M49.16,316.43a11.17,11.17,0,0,1-3.41,8.73,11.25,11.25,0,0,1,3.41-8.73Z" transform="translate(-22.28 -22.83)"/><path class="cls-2" d="M52,321.86a12.15,12.15,0,0,1-9.29-3,12.11,12.11,0,0,1,9.29,3Z" transform="translate(-22.28 -22.83)"/></svg>