<svg id="Layer_1" data-name="Layer 1" xmlns="http://www.w3.org/2000/svg" xmlns:xlink="http://www.w3.org/1999/xlink" viewBox="0 0 551 511"><defs><style>.cls-1{fill:#5762b2;}.cls-2{fill:#fff;}</style></defs><path class="cls-1" d="M289.78,535.33c-72.71,0-141-26.24-192.43-73.9S17.78,350.59,17.78,283.33,46,152.82,97.35,105.23s119.72-73.9,192.43-73.9,141,26.25,192.43,73.9,79.57,110.84,79.57,178.1-28.26,130.52-79.57,178.1S362.48,535.33,289.78,535.33Z" transform="translate(-14.28 -27.83)"/><path class="cls-2" d="M289.78,34.83a285.49,285.49,0,0,1,104.68,19.6,269.75,269.75,0,0,1,85.37,53.37,247.51,247.51,0,0,1,57.43,79,232.23,232.23,0,0,1,0,193.09,247.62,247.62,0,0,1-57.43,79,269.93,269.93,0,0,1-85.37,53.37,289.48,289.48,0,0,1-209.36,0,269.93,269.93,0,0,1-85.37-53.37,247.62,247.62,0,0,1-57.43-79,232.23,232.23,0,0,1,0-193.09,247.51,247.51,0,0,1,57.43-79A269.75,269.75,0,0,1,185.1,54.43a285.42,285.42,0,0,1,104.68-19.6m0-7c-152.16,0-275.5,114.39-275.5,255.5s123.34,255.5,275.5,255.5,275.5-114.39,275.5-255.5S441.93,27.83,289.78,27.83Z" transform="translate(-14.28 -27.83)"/><image width="928" height="1098" transform="translate(108.72 50.17) scale(0.32 0.3)" xlink:href="../../../../Sjernetegn/Libra/v%C3%A6gt.png"/><path class="cls-2" d="M69.85,133.44a33.47,33.47,0,0,1,3.8,6l.73,1.44.69,1.44a16.43,16.43,0,0,1,1.12,2.95c.54,2.06.8,4.49,2.08,6.33a10.38,10.38,0,0,0,5.35,3.82c1.08.4,2.21.74,3.33,1.26a15.75,15.75,0,0,1,3.32,2.11,14.34,14.34,0,0,1,4.82,6.93,15.65,15.65,0,0,1,.21,8.08A16.23,16.23,0,0,1,94,177.41a14,14,0,0,1-2.14,3.18l-.68-.18c-.3-1.25-.51-2.43-.72-3.56s-.44-2.2-.67-3.22A33.15,33.15,0,0,0,88,168.14a20.71,20.71,0,0,0-2.4-4.65c-.55-.73-1.26-1.43-2-2.27s-1.52-1.77-2.29-2.73a51.52,51.52,0,0,0-4.8-5.44c-1.68-1.67-4-3.07-5.55-5.12a10.83,10.83,0,0,1-1.72-3.32,17.88,17.88,0,0,1-.85-3.61,15.36,15.36,0,0,1,.72-7.44Z" transform="translate(-14.28 -27.83)"/><path class="cls-2" d="M429.4,205.69a58.07,58.07,0,0,1,1.52,6.9c.39,2.25.7,4.46,1,6.67.13,1.1.29,2.2.39,3.3s.14,2.22.13,3.34c0,2.25-.23,4.58-.09,6.87a24.62,24.62,0,0,0,4.77,12.66c2.66,3.74,4.86,7.57,7.49,11.14l.2.27.25.81a68.15,68.15,0,0,1,2.52,12.62c.24,2.14.41,4.3.48,6.49a51.48,51.48,0,0,1-.2,6.66l-.68.16a51.38,51.38,0,0,1-3.2-5.84c-.93-2-1.76-4-2.52-6A68,68,0,0,1,438,259.35l.45,1.08a47.13,47.13,0,0,1-5.19-13.38,65.43,65.43,0,0,0-3.75-13.6c-.9-2.19-2-4.39-2.69-6.7a22.39,22.39,0,0,1-.75-3.51,35.64,35.64,0,0,1-.22-3.58,36.45,36.45,0,0,1,.62-7.14,25.77,25.77,0,0,1,2.28-6.9Z" transform="translate(-14.28 -27.83)"/><path class="cls-2" d="M65.82,210a41.58,41.58,0,0,1,3.61,6.93c.48,1.13.94,2.24,1.36,3.35a20.62,20.62,0,0,1,1.09,3.39c.53,2.33.7,5,2,7.18a12.67,12.67,0,0,0,5.46,4.95,39.55,39.55,0,0,1,3.48,2,25.58,25.58,0,0,1,3.18,2.6,28.63,28.63,0,0,1,5.29,6.27,27.61,27.61,0,0,1,3,7.6,24,24,0,0,1,.63,4.05,18.17,18.17,0,0,1-.12,4.16l-.66.2c-1-1-1.78-2.07-2.58-3.1s-1.56-2-2.3-3c-1.49-2-2.9-3.92-4.3-5.84s-2.57-4-3.95-5.93c-.69-1-1.43-1.91-2.13-2.92s-1.41-2.09-2.17-3.21A68.29,68.29,0,0,0,72,232.12c-1.68-2-4-3.81-5.5-6.16a13.26,13.26,0,0,1-1.64-3.76,22.85,22.85,0,0,1-.75-4,18.08,18.08,0,0,1,1-8.16Z" transform="translate(-14.28 -27.83)"/></svg>